<?xml version="1.0" ?><!DOCTYPE svg  PUBLIC '-//W3C//DTD SVG 1.1//EN'  'http://www.w3.org/Graphics/SVG/1.1/DTD/svg11.dtd'><svg enable-background="new 0 0 91 91" height="91px" id="Layer_1" version="1.1" viewBox="0 0 91 91" width="91px" xml:space="preserve" xmlns="http://www.w3.org/2000/svg" xmlns:xlink="http://www.w3.org/1999/xlink"><g><g><g><g><path d="M47.907,19.398c-2.531,4.885-5.115,9.998-7.85,15.41c-1.232,2.438-2.482,4.912-3.752,7.41      c-0.627,1.236-0.135,2.75,1.104,3.377c0.363,0.186,0.752,0.273,1.135,0.273c0.916,0,1.799-0.502,2.242-1.375      c1.271-2.502,2.521-4.979,3.756-7.42c2.729-5.4,5.307-10.5,7.826-15.363c0.639-1.232,0.158-2.748-1.074-3.387      C50.062,17.688,48.546,18.168,47.907,19.398z"/><path d="M56.712,9.043c-1.154-0.771-2.715-0.459-3.484,0.695c-0.441,0.664-0.631,1.051-0.832,1.459      c-0.102,0.207-0.219,0.451-0.412,0.805c-0.666,1.217-0.217,2.744,1,3.408c0.383,0.209,0.795,0.309,1.203,0.309      c0.889,0,1.75-0.473,2.207-1.309c0.24-0.441,0.389-0.744,0.516-1.004c0.166-0.34,0.242-0.494,0.498-0.879      C58.179,11.373,57.866,9.813,56.712,9.043z"/><path d="M30.62,23.471c-0.172,1.143-0.371,2.414-0.582,3.768c-0.766,4.904-1.721,11.01-2.174,15.693      c-0.135,1.381,0.877,2.609,2.258,2.744c0.082,0.008,0.164,0.012,0.246,0.012c1.277,0,2.371-0.973,2.498-2.271      c0.439-4.537,1.381-10.563,2.137-15.402c0.213-1.361,0.412-2.643,0.586-3.791c0.207-1.373-0.736-2.652-2.107-2.861      C32.103,21.154,30.829,22.1,30.62,23.471z"/><path d="M36.052,10.896c-1.225-0.648-2.746-0.188-3.398,1.039c-0.234,0.445-0.359,0.818-0.461,1.119      c-0.037,0.111-0.074,0.227-0.125,0.357c-0.514,1.289,0.117,2.75,1.406,3.262c0.305,0.121,0.619,0.178,0.928,0.178      c1,0,1.943-0.6,2.336-1.584c0.09-0.229,0.158-0.43,0.223-0.623c0.039-0.117,0.066-0.227,0.131-0.35      C37.743,13.07,37.278,11.549,36.052,10.896z"/><path d="M83.157,39.172c-0.666-1.219-2.195-1.666-3.41-1c-4.916,2.686-10.625,5.463-16.146,8.15      c-4.35,2.117-8.848,4.307-12.842,6.396c-1.229,0.645-1.703,2.162-1.061,3.391c0.449,0.857,1.322,1.348,2.229,1.348      c0.393,0,0.791-0.092,1.162-0.287c3.93-2.055,8.395-4.229,12.711-6.33c5.572-2.711,11.336-5.516,16.355-8.258      C83.374,41.916,83.821,40.391,83.157,39.172z"/><path d="M88.552,39.814l1.037-0.564c1.219-0.664,1.668-2.191,1.004-3.41c-0.664-1.217-2.188-1.666-3.41-1.002l-1.037,0.564      c-1.217,0.664-1.666,2.191-1.002,3.41c0.455,0.836,1.318,1.309,2.207,1.309C87.757,40.121,88.169,40.023,88.552,39.814z"/><path d="M52.573,37.127c-1.207,1.398-2.5,3.018-3.871,4.732c-2.514,3.145-5.111,6.395-7.361,8.533      c-1.006,0.957-1.047,2.547-0.09,3.553c0.494,0.52,1.156,0.781,1.82,0.781c0.623,0,1.246-0.23,1.732-0.691      c2.498-2.375,5.205-5.762,7.822-9.037c1.342-1.678,2.607-3.262,3.754-4.59c0.904-1.053,0.787-2.639-0.264-3.545      C55.065,35.959,53.479,36.076,52.573,37.127z"/><path d="M57.935,35.176c0.494,0.514,1.152,0.771,1.813,0.771c0.627,0,1.254-0.232,1.74-0.699      c0.775-0.744,1.141-1.176,1.693-1.83l0.18-0.215c0.898-1.059,0.766-2.645-0.293-3.541s-2.643-0.766-3.541,0.293l-0.186,0.221      c-0.514,0.607-0.748,0.885-1.334,1.447C57.007,32.584,56.974,34.174,57.935,35.176z"/><path d="M55.745,65.258c0.842-0.113,1.873-0.244,3.014-0.387c4.688-0.592,11.105-1.402,14.271-2.24      c1.342-0.355,2.141-1.73,1.785-3.072c-0.354-1.342-1.73-2.137-3.072-1.785c-2.842,0.752-9.324,1.57-13.613,2.111      c-1.154,0.146-2.199,0.277-3.051,0.393c-1.377,0.184-2.342,1.447-2.158,2.822c0.17,1.264,1.248,2.18,2.488,2.18      C55.519,65.279,55.632,65.273,55.745,65.258z"/><path d="M80.212,60.928c0.125,0,0.252-0.008,0.379-0.027c0.91-0.139,1.82-0.281,2.729-0.426l0.266-0.041      c1.369-0.217,2.307-1.502,2.09-2.873c-0.215-1.371-1.502-2.313-2.873-2.09l-0.266,0.041c-0.898,0.141-1.797,0.283-2.697,0.42      c-1.371,0.207-2.316,1.488-2.107,2.859C77.919,60.037,78.991,60.928,80.212,60.928z"/><path d="M36.614,75.383c-1.408-0.082-2.576,0.969-2.662,2.354s0.969,2.578,2.354,2.662c1.162,0.072,2.322,0.107,3.482,0.107      c4.576,0,9.129-0.555,13.576-1.658c1.09-0.27,1.867-1.229,1.906-2.35c0.041-1.121-0.668-2.133-1.734-2.479l-12.123-3.928      c0.418-0.52,0.816-1.057,1.191-1.607c0.576-0.848,0.578-1.961,0.008-2.813s-1.602-1.27-2.604-1.059l-3.965,0.836l-0.176-5.418      c-0.031-0.957-0.605-1.814-1.48-2.209c-0.873-0.393-1.896-0.254-2.635,0.357l-0.15,0.125c-0.895,0.74-1.787,1.482-2.68,2.223      c-1.627-5.557-3.943-10.875-6.914-15.859c-0.545-0.914-1.611-1.383-2.648-1.178c-1.043,0.207-1.842,1.049-1.996,2.1      l-1.326,9.057c-3.725-3.211-7.557-6.338-11.436-9.33c-0.906-0.699-2.172-0.697-3.078,0.008c-0.904,0.705-1.217,1.932-0.76,2.982      c3.258,7.498,6.92,14.922,10.883,22.064c0.674,1.215,2.207,1.65,3.416,0.979c1.213-0.674,1.65-2.203,0.979-3.416      c-2.176-3.92-4.258-7.926-6.23-11.984c2.158,1.807,4.285,3.646,6.371,5.508c0.691,0.615,1.664,0.805,2.531,0.486      c0.869-0.314,1.494-1.082,1.629-1.998l0.863-5.91c1.641,3.699,2.924,7.549,3.836,11.514c0.195,0.85,0.818,1.539,1.646,1.816      c0.826,0.281,1.738,0.109,2.41-0.449c0.637-0.531,1.275-1.063,1.914-1.592l0.107,3.285c0.023,0.742,0.375,1.438,0.961,1.895      c0.584,0.459,1.342,0.639,2.068,0.482l0.197-0.041c-0.033,0.27-0.023,0.545,0.033,0.818c0.184,0.885,0.828,1.602,1.688,1.881      l5.572,1.803C39.968,75.508,38.29,75.486,36.614,75.383z"/></g></g></g></g></svg>