<?xml version="1.0" ?><!DOCTYPE svg  PUBLIC '-//W3C//DTD SVG 1.1//EN'  'http://www.w3.org/Graphics/SVG/1.1/DTD/svg11.dtd'><svg height="512px" style="enable-background:new 0 0 512 512;" version="1.1" viewBox="0 0 512 512" width="512px" xml:space="preserve" xmlns="http://www.w3.org/2000/svg" xmlns:xlink="http://www.w3.org/1999/xlink"><g id="bomb__x2C__tint__x2C__weapon__x2C__fire__x2C__blast_x2C_"><g><linearGradient gradientUnits="userSpaceOnUse" id="SVGID_1_" x1="41.2134" x2="470.0673" y1="111.7676" y2="111.7676"><stop offset="0" style="stop-color:#D59632"/><stop offset="0.0068" style="stop-color:#D79B32"/><stop offset="0.0456" style="stop-color:#DFB434"/><stop offset="0.0893" style="stop-color:#E6C735"/><stop offset="0.1397" style="stop-color:#EAD535"/><stop offset="0.2032" style="stop-color:#EDDD36"/><stop offset="0.3214" style="stop-color:#EEDF36"/><stop offset="0.8061" style="stop-color:#EEDF36"/><stop offset="0.879" style="stop-color:#EDDD36"/><stop offset="0.917" style="stop-color:#EBD535"/><stop offset="0.9469" style="stop-color:#E6C735"/><stop offset="0.9726" style="stop-color:#DFB434"/><stop offset="0.9954" style="stop-color:#D79C32"/><stop offset="1" style="stop-color:#D59632"/></linearGradient><path d="M357.886,97.813l5.615-17.025l-9.65-11.097c-59.868,14.003-96.726,23.034-129.922,78.75    l31.644,5.402C277.062,113.47,315.238,103.926,357.886,97.813z" style="fill:url(#SVGID_1_);"/><linearGradient gradientUnits="userSpaceOnUse" id="SVGID_2_" x1="58.9829" x2="487.8191" y1="305.291" y2="305.291"><stop offset="0" style="stop-color:#000000"/><stop offset="1" style="stop-color:#3D4148"/></linearGradient><path d="M308.416,188.361l5.705-37.05l-22.716-3.522l3.208-21.586l-75.865-11.621l-3.313,21.479    l-22.822-3.417l-5.707,37.035c-63.828,14.736-115.402,67.035-125.972,135.724c-13.901,90.278,47.934,174.643,138.094,188.643    c90.193,13.91,174.648-47.933,188.555-138.211C398.272,287.145,364.868,221.778,308.416,188.361z" style="fill:url(#SVGID_2_);"/><linearGradient gradientUnits="userSpaceOnUse" id="SVGID_3_" x1="24.1821" x2="453.0167" y1="74.7271" y2="74.7271"><stop offset="0" style="stop-color:#D59632"/><stop offset="0.0068" style="stop-color:#D79B32"/><stop offset="0.0456" style="stop-color:#DFB434"/><stop offset="0.0893" style="stop-color:#E6C735"/><stop offset="0.1397" style="stop-color:#EAD535"/><stop offset="0.2032" style="stop-color:#EDDD36"/><stop offset="0.3214" style="stop-color:#EEDF36"/><stop offset="0.8061" style="stop-color:#EEDF36"/><stop offset="0.879" style="stop-color:#EDDD36"/><stop offset="0.917" style="stop-color:#EBD535"/><stop offset="0.9469" style="stop-color:#E6C735"/><stop offset="0.9726" style="stop-color:#DFB434"/><stop offset="0.9954" style="stop-color:#D79C32"/><stop offset="1" style="stop-color:#D59632"/></linearGradient><polygon points="355.377,74.832 360.974,82.3 347.384,121.634 385.47,109.486 420.138,133.454     418.061,92.263 453.017,69.851 413.697,56.465 401.336,16 401.243,16 377.385,50.549 336.076,50.144 338.785,52.521   " style="fill:url(#SVGID_3_);"/><linearGradient gradientUnits="userSpaceOnUse" id="SVGID_4_" x1="320.5098" x2="393.5716" y1="331.9316" y2="331.9316"><stop offset="0" style="stop-color:#162029"/><stop offset="1" style="stop-color:#394247"/></linearGradient><path d="M320.51,205.223c4.536,7.537,8.573,15.636,12.281,24.071    c19.797,25.662,32.287,62.622,32.287,103.878c0,42.529-13.277,80.497-34.142,106.185c-3.116,6.691-6.441,13.173-10.085,19.285    c33.054-22.506,55.98-70.65,55.98-126.589C376.832,275.917,353.746,227.63,320.51,205.223z" style="fill:url(#SVGID_4_);"/></g></g><g id="Layer_1"/></svg>